<?xml version="1.0" encoding="utf-8"?>
<!-- Generator: Adobe Illustrator 23.1.1, SVG Export Plug-In . SVG Version: 6.00 Build 0)  -->
<svg version="1.1" id="Layer_1" xmlns="http://www.w3.org/2000/svg" xmlns:xlink="http://www.w3.org/1999/xlink" x="0px" y="0px"
	 width="577.86px" height="250.852px" viewBox="0 0 577.86 250.852" style="enable-background:new 0 0 577.86 250.852;"
	 xml:space="preserve">
<style type="text/css">
	.st0{fill:#3B332E;}
</style>
<g>
	<g>
		<polygon class="st0" points="159.556,49.806 159.556,200.806 142.906,200.806 64.566,73.436 64.566,201.156 50.126,201.026 
			50.126,49.956 65.996,49.956 143.676,175.206 143.676,49.806 		"/>
		<path class="st0" d="M65.066,201.661l-15.44-0.14V49.456h16.648l76.902,123.995V49.306h16.88v152h-17.429L65.066,75.203V201.661z
			 M50.626,200.531l13.44,0.12V71.669l79.119,128.637h15.871v-150h-14.88V176.96L65.718,50.456H50.626V200.531z"/>
	</g>
	<g>
		<rect x="50.126" y="49.946" class="st0" width="14.44" height="0.01"/>
		<polygon class="st0" points="65.066,50.456 49.626,50.456 49.626,49.456 50.126,49.446 65.066,49.446 		"/>
	</g>
	<g>
		<g>
			<polygon class="st0" points="338.766,130.726 381.446,200.976 365.136,200.976 274.236,50.126 289.786,50.126 330.456,117.056 
				368.456,50.276 383.716,50.286 			"/>
			<path class="st0" d="M382.335,201.476h-17.481l-0.146-0.242L273.351,49.626h16.716l0.146,0.24l40.229,66.204l37.723-66.294
				l16.402,0.011l-45.222,80.929L382.335,201.476z M365.418,200.476h15.14l-42.37-69.739l44.677-79.951l-14.117-0.01l-38.277,67.267
				l-40.965-67.417h-14.384L365.418,200.476z"/>
		</g>
	</g>
	<g>
		<g>
			<polygon class="st0" points="203.886,49.876 203.886,49.896 203.876,49.876 			"/>
			<polygon class="st0" points="204.386,51.969 203.068,49.396 204.376,49.376 			"/>
		</g>
		<g>
			<polygon class="st0" points="313.296,200.726 296.656,200.726 219.736,75.666 219.736,136.136 203.886,136.136 203.886,49.876 
				219.746,49.876 			"/>
			<path class="st0" d="M314.194,201.226h-17.817L220.236,77.433v59.203h-16.85v-87.26h16.638L314.194,201.226z M296.936,200.226
				h15.462l-92.93-149.85h-15.082v85.26h14.85V73.899L296.936,200.226z"/>
		</g>
		<g>
			<rect x="203.886" y="49.806" class="st0" width="15.85" height="0.07"/>
			<polygon class="st0" points="220.236,50.376 203.386,50.376 203.386,49.376 203.886,49.306 220.236,49.306 			"/>
		</g>
		<g>
			<polygon class="st0" points="203.882,152.184 219.74,152.184 219.74,200.805 203.882,200.653 			"/>
			<path class="st0" d="M220.24,201.31l-16.859-0.162v-49.464h16.859V201.31z M204.381,200.158l14.859,0.143v-47.616h-14.859
				V200.158z"/>
		</g>
	</g>
	<g>
		<g>
			<polygon class="st0" points="527.336,200.966 510.696,200.966 433.776,75.906 433.776,136.376 417.916,136.376 417.916,50.116 
				433.786,50.116 			"/>
			<path class="st0" d="M528.234,201.466h-17.817L434.276,77.673v59.203h-16.86v-87.26h16.648L528.234,201.466z M510.976,200.466
				h15.462l-92.93-149.85h-15.092v85.26h14.86V74.139L510.976,200.466z"/>
		</g>
		<g>
			<rect x="417.916" y="50.056" class="st0" width="15.86" height="0.06"/>
			<polygon class="st0" points="434.276,50.616 417.416,50.616 417.416,49.616 417.916,49.556 434.276,49.556 			"/>
		</g>
		<g>
			<polygon class="st0" points="417.919,152.428 433.778,152.428 433.778,201.05 417.919,200.898 			"/>
			<path class="st0" d="M434.277,201.554l-16.858-0.161v-49.465h16.858V201.554z M418.419,200.403l14.858,0.142v-47.616h-14.858
				V200.403z"/>
		</g>
	</g>
</g>
</svg>
